<svg width="37" height="47" viewBox="0 0 37 47" fill="none" xmlns="http://www.w3.org/2000/svg">
<path d="M24.9351 18.1131C26.5481 19.0977 27.5994 20.2646 28.3151 21.4708C29.5179 23.4979 29.9127 25.8765 29.9901 28.2445C30.1238 32.3343 28.0653 36.018 24.1053 38.2079C20.1061 40.4195 13.8266 41.2676 5.42606 38.7826C3.91702 38.3362 2.2161 39.0837 1.6908 40.6156C1.15215 42.1866 2.11763 43.7696 3.65137 44.2233C13.1888 47.0446 21.3 46.355 27.1233 43.1347C32.9856 39.8928 36.1802 34.2512 35.9783 28.0741C35.8881 25.315 35.4256 21.8652 33.5317 18.6732C31.8742 15.8795 29.2293 13.4672 25.2393 11.8577L25.6542 3.3233L25.7362 1.6372L24.2137 2.3663L3.83011 12.1277L2.13246 12.9406L3.75099 13.9015L23.1014 25.3896L24.5398 26.2436L24.621 24.5727L24.9351 18.1131Z" stroke="white" stroke-width="2" stroke-linecap="round"/>
</svg>
